<svg xmlns="http://www.w3.org/2000/svg" viewBox="0 0 512 512" width="512" height="512"><title>Viaje a Tailandia</title><rect width="512" height="512" rx="112" fill="#1b2540"/><g transform="translate(0.0 0.0) scale(1.0)"><path d="M256 84c-62 0-110 46-110 106 0 82 110 178 110 178s110-96 110-178c0-60-48-106-110-106z" fill="#f1f6f5"/><circle cx="256" cy="190" r="42" fill="#1b2540"/><rect x="96.0" y="392" width="88.6" height="30" rx="15" fill="#d6337f"/><rect x="192.6" y="392" width="66.5" height="30" rx="15" fill="#e3a51f"/><rect x="267.1" y="392" width="44.3" height="30" rx="15" fill="#1f9377"/><rect x="319.4" y="392" width="44.3" height="30" rx="15" fill="#0b8ac2"/><rect x="371.7" y="392" width="44.3" height="30" rx="15" fill="#7b4bc0"/></g></svg>
